<svg width="22" height="20" viewBox="0 0 22 20" fill="none" xmlns="http://www.w3.org/2000/svg">
<path d="M0.5 6.76466V6.96606C0.5 8.78643 1.21424 10.53 2.48915 11.7571C2.48917 11.7571 2.48919 11.7571 2.48922 11.7571L9.55383 18.559C9.94943 18.9625 10.4854 19.107 11 19.107C11.4826 19.107 12.0152 18.9587 12.4071 18.559L19.4717 11.7571C19.4717 11.7571 19.4718 11.7571 19.4718 11.7571C20.741 10.5355 21.5 8.79447 21.5 6.96606V6.76466C21.5 3.71422 19.3448 1.07926 16.3981 0.592522C14.4709 0.240837 12.4703 0.90505 11.0708 2.34827L10.9847 2.43698L10.8825 2.34031C9.48323 0.902608 7.48646 0.241484 5.5628 0.592522C2.61131 1.08006 0.5 3.71936 0.5 6.76466Z" stroke="#FEFFF7"/>
</svg>
